<?xml version="1.0" encoding="UTF-8"?>
<svg version="1.1" xmlns="http://www.w3.org/2000/svg" width="512" height="512">
<path d="M0 0 C6.32910547 3.6225124 10.33605491 9.09700359 12.5625 16 C12.79296875 19.12109375 12.79296875 19.12109375 12.75 22.4375 C12.74033203 24.07525391 12.74033203 24.07525391 12.73046875 25.74609375 C12.5625 29 12.5625 29 11.796875 32.140625 C11.24726072 35.06761143 11.24726072 35.06761143 13.16015625 37.23828125 C41.23067963 60.86022723 74.1088107 70.37206327 110.5625 68 C136.08474116 65.77551646 161.26565249 60.25015321 186.2890625 54.9453125 C291.26250154 32.73130879 291.26250154 32.73130879 336.51953125 61.90625 C342.96485854 66.44952966 348.88509749 71.53429724 354.5625 77 C355.28179687 77.6703125 356.00109375 78.340625 356.7421875 79.03125 C357.70511719 80.00578125 357.70511719 80.00578125 358.6875 81 C359.24695313 81.556875 359.80640625 82.11375 360.3828125 82.6875 C363.64568233 89.0835892 361.06414764 97.48459571 359.52490234 104.11499023 C359.30621176 105.09220819 359.08752117 106.06942614 358.8622036 107.07625675 C358.13334785 110.32248725 357.39087413 113.56544474 356.6484375 116.80859375 C356.12440214 119.13070563 355.60125013 121.453017 355.07891846 123.7755127 C353.6690536 130.03326551 352.24750808 136.28830931 350.82337189 142.54282761 C349.34309468 149.0507605 347.87169186 155.5607003 346.39990234 162.07055664 C345.80196255 164.71490132 345.20396004 167.35923181 344.60592651 170.0035553 C344.45721906 170.66115001 344.30851161 171.31874472 344.15529788 171.99626654 C343.24620949 176.01563936 342.33579982 180.03471046 341.42441666 184.05356354 C337.51578903 201.29001087 333.65734072 218.53668014 329.85351181 235.79662895 C328.35035812 242.61244587 326.84015542 249.42670547 325.33052254 256.24108982 C324.14168318 261.61099395 322.95778592 266.98189856 321.78436279 272.35519409 C320.68983271 277.36657071 319.58272733 282.37500055 318.46590424 287.38145447 C318.06175083 289.20432322 317.66238831 291.02826191 317.26822662 292.85331726 C316.73258601 295.33090125 316.18021571 297.8041718 315.62353516 300.27709961 C315.47298864 300.99351844 315.32244213 301.70993727 315.1673336 302.44806576 C314.1505917 306.85830713 312.69842416 309.7326912 309.5625 313 C306.44853384 314.55698308 303.8922854 314.84937225 300.5625 314 C296.97830276 311.6345499 293.82023645 308.79023651 290.5625 306 C261.51715637 283.51171555 225.55978601 278.80530413 189.8878479 283.15361023 C169.90054112 285.70727737 150.23878936 289.72157953 130.5625 294 C47.14188396 312.10545443 47.14188396 312.10545443 11.5625 303 C10.89444336 302.83371094 10.22638672 302.66742188 9.53808594 302.49609375 C-8.69225541 297.79710362 -25.85873441 288.64776118 -39.5390625 275.72265625 C-41.13367421 273.88800168 -41.13367421 273.88800168 -42.4375 274 C-42.78977661 275.57917961 -42.78977661 275.57917961 -43.14916992 277.19026184 C-54.4466629 327.83267559 -65.75496947 378.4726829 -77.10058594 429.1043396 C-78.15593568 433.81417287 -79.21059253 438.52416046 -80.26464844 443.23428345 C-81.51046759 448.80109081 -82.75775141 454.36756802 -84.00615692 459.93379593 C-84.46323347 461.97281325 -84.91981901 464.01194071 -85.37586212 466.05118942 C-86.55263414 471.31239907 -87.73604557 476.57193862 -88.93977356 481.82705307 C-89.39587534 483.81827732 -89.8479801 485.81041601 -90.29968262 487.80264282 C-90.55109009 488.86848602 -90.80249756 489.93432922 -91.06152344 491.0324707 C-91.2653363 491.90563431 -91.46914917 492.77879791 -91.67913818 493.67842102 C-93.99408846 500.76519645 -99.30575417 505.18212052 -105.4375 509 C-112.5640627 511.3755209 -121.09006531 511.10583796 -127.9375 508 C-133.71191483 504.64742034 -136.9252664 500.0932051 -139.8125 494.1875 C-141.56156442 485.26727147 -140.07229762 476.79909914 -138.03613281 468.06689453 C-137.77812802 466.91731199 -137.52012323 465.76772945 -137.25430012 464.58331108 C-136.54367857 461.42771228 -135.82264092 458.27471469 -135.09701467 455.12253952 C-134.31822097 451.72722413 -133.55334487 448.32877284 -132.78684998 444.93066406 C-131.4623701 439.06716119 -130.12959543 433.20559616 -128.79110718 427.34527588 C-126.66091107 418.01790491 -124.54766583 408.68673473 -122.43676758 399.35498047 C-121.71693446 396.17370888 -120.9969578 392.9924698 -120.27690125 389.81124878 C-120.09781953 389.02003997 -119.91873782 388.22883117 -119.73422939 387.41364634 C-118.45461942 381.76132856 -117.17262511 376.10955469 -115.88948059 370.45803833 C-111.24950433 350.02029452 -106.63579167 329.57689634 -102.05859375 309.125 C-101.91312363 308.47505176 -101.76765351 307.82510352 -101.6177752 307.15545988 C-100.02440395 300.03603572 -98.43214439 292.91636316 -96.84042358 285.79656982 C-94.26013298 274.25550844 -91.67520661 262.71548502 -89.09070778 251.17536545 C-88.23759163 247.3659258 -87.38460725 243.55645667 -86.53166199 239.74697876 C-82.83386447 223.23204696 -79.13349662 206.71769262 -75.43121338 190.20376587 C-74.58116286 186.41198831 -73.73124146 182.62018183 -72.88134766 178.82836914 C-70.4028426 167.7711114 -67.9235638 156.71403043 -65.43994141 145.65792084 C-64.12074748 139.7851188 -62.80232152 133.9121446 -61.484375 128.0390625 C-61.10060196 126.32893478 -61.10060196 126.32893478 -60.70907593 124.58425903 C-57.25185808 109.17156607 -53.83342298 93.7507769 -50.44874382 78.3219986 C-49.13020547 72.31710862 -47.8053234 66.31361419 -46.48056889 60.31009293 C-45.26660824 54.80398626 -44.06430541 49.29551193 -42.87145424 43.78479576 C-42.14830843 40.45684166 -41.41430567 37.13135186 -40.67728424 33.80644608 C-40.34472396 32.29533853 -40.0167217 30.78321862 -39.69390106 29.27000046 C-35.11328553 7.82352867 -35.11328553 7.82352867 -25.5 1.15625 C-17.5563046 -3.29703378 -8.36988961 -3.76645032 0 0 Z " fill="#E4E5E6" transform="translate(145.4375,2)"/>
<path d="M0 0 C2.51039031 2.20037223 4.93904931 4.45840362 7.34375 6.7734375 C8.42269531 7.77890625 8.42269531 7.77890625 9.5234375 8.8046875 C10.16539062 9.454375 10.80734375 10.1040625 11.46875 10.7734375 C12.02820313 11.3303125 12.58765625 11.8871875 13.1640625 12.4609375 C16.42693233 18.8570267 13.84539764 27.25803321 12.30615234 33.88842773 C12.08746176 34.86564569 11.86877117 35.84286364 11.6434536 36.84969425 C10.91459785 40.09592475 10.17212413 43.33888224 9.4296875 46.58203125 C8.90565214 48.90414313 8.38250013 51.2264545 7.86016846 53.5489502 C6.4503036 59.80670301 5.02875808 66.06174681 3.60462189 72.31626511 C2.12434468 78.824198 0.65294186 85.3341378 -0.81884766 91.84399414 C-1.41678745 94.48833882 -2.01478996 97.13266931 -2.61282349 99.7769928 C-2.76153094 100.43458751 -2.91023839 101.09218222 -3.06345212 101.76970404 C-3.97254051 105.78907686 -4.88295018 109.80814796 -5.79433334 113.82700104 C-9.70296097 131.06344837 -13.56140928 148.31011764 -17.36523819 165.57006645 C-18.86839188 172.38588337 -20.37859458 179.20014297 -21.88822746 186.01452732 C-23.07706682 191.38443145 -24.26096408 196.75533606 -25.43438721 202.12863159 C-26.52891729 207.14000821 -27.63602267 212.14843805 -28.75284576 217.15489197 C-29.15699917 218.97776072 -29.55636169 220.80169941 -29.95052338 222.62675476 C-30.48616399 225.10433875 -31.03853429 227.5776093 -31.59521484 230.05053711 C-31.74576136 230.76695594 -31.89630787 231.48337477 -32.0514164 232.22150326 C-33.0681583 236.63174463 -34.52032584 239.5061287 -37.65625 242.7734375 C-40.77021616 244.33042058 -43.3264646 244.62280975 -46.65625 243.7734375 C-50.24044724 241.4079874 -53.39851355 238.56367401 -56.65625 235.7734375 C-85.22008357 213.657961 -117.83212459 210.90882018 -152.65625 211.7734375 C-152.03169413 206.22260948 -151.12169359 200.84183339 -149.9140625 195.390625 C-149.66050491 194.22552902 -149.66050491 194.22552902 -149.40182495 193.03689575 C-148.86494312 190.57333948 -148.32323808 188.11087486 -147.78125 185.6484375 C-147.42545039 184.02090563 -147.0699792 182.39330192 -146.71484375 180.765625 C-146.02383338 177.59963263 -145.33124472 174.43399171 -144.63769531 171.26855469 C-143.28996409 165.10792333 -141.97066267 158.94125932 -140.65625 152.7734375 C-147.37908099 153.85274527 -154.10096805 154.93779555 -160.82226562 156.02661133 C-163.10298277 156.39540883 -165.38390335 156.76295075 -167.66503906 157.12915039 C-185.74160657 160.02440597 -185.74160657 160.02440597 -203.65625 163.7734375 C-203.1745743 155.91730686 -201.84752194 148.5788399 -199.90625 140.9609375 C-199.36164993 138.77644771 -198.81871659 136.59154181 -198.27734375 134.40625 C-198.00519043 133.30958008 -197.73303711 132.21291016 -197.45263672 131.08300781 C-196.67224825 127.83992196 -195.95102923 124.59003999 -195.25390625 121.328125 C-194.9276123 119.81375854 -194.9276123 119.81375854 -194.59472656 118.26879883 C-194.1849194 116.34874677 -193.78416726 114.42673431 -193.39355469 112.50268555 C-193.20825195 111.64457275 -193.02294922 110.78645996 -192.83203125 109.90234375 C-192.67645752 109.15025635 -192.52088379 108.39816895 -192.3605957 107.62329102 C-191.65625 105.7734375 -191.65625 105.7734375 -188.65625 103.7734375 C-186.81765532 103.24349275 -184.95796783 102.78507955 -183.08984375 102.37109375 C-181.97335449 102.12190186 -180.85686523 101.87270996 -179.70654297 101.6159668 C-178.51432129 101.35855713 -177.32209961 101.10114746 -176.09375 100.8359375 C-174.87316895 100.57014893 -173.65258789 100.30436035 -172.39501953 100.03051758 C-157.10513924 96.74374766 -142.29450023 94.34749985 -126.65625 93.7734375 C-128.61152205 106.08822108 -131.29222515 118.1832191 -134.15625 130.31640625 C-135.75561937 137.11478387 -137.21531006 143.93983093 -138.65625 150.7734375 C-137.62443604 150.78802002 -136.59262207 150.80260254 -135.52954102 150.81762695 C-131.61337655 150.87665045 -127.69772659 150.95385022 -123.78198242 151.03588867 C-122.10368345 151.06865858 -120.42528688 151.09683048 -118.74682617 151.11987305 C-107.07865771 151.28421345 -96.08947407 152.46672763 -84.65625 154.7734375 C-82.65768994 155.1152983 -80.65817963 155.45189609 -78.65625 155.7734375 C-78.39932373 154.56397461 -78.14239746 153.35451172 -77.87768555 152.10839844 C-76.91255167 147.56789974 -75.94459133 143.02800727 -74.97583008 138.48828125 C-74.559058 136.53336424 -74.14302537 134.57828942 -73.7277832 132.62304688 C-69.48159254 112.63375941 -69.48159254 112.63375941 -67.14770508 104.02441406 C-66.51404666 101.506114 -66.51404666 101.506114 -66.65625 97.7734375 C-68.88459488 97.31112528 -71.11398669 96.85385933 -73.34375 96.3984375 C-74.58511719 96.14320313 -75.82648438 95.88796875 -77.10546875 95.625 C-78.62159955 95.33692301 -80.138628 95.05355251 -81.65625 94.7734375 C-82.59573486 94.59409668 -83.53521973 94.41475586 -84.50317383 94.22998047 C-93.36334277 92.68365288 -102.01585467 92.53742956 -110.96875 92.6484375 C-112.40298844 92.65850233 -113.83723383 92.6676219 -115.27148438 92.67578125 C-118.73322115 92.69748301 -122.19468852 92.73181295 -125.65625 92.7734375 C-125.06861244 86.81526217 -124.20638953 81.06514433 -122.9140625 75.22265625 C-122.74502411 74.4425972 -122.57598572 73.66253815 -122.40182495 72.85884094 C-122.04590161 71.22061324 -121.68781313 69.58285454 -121.32763672 67.94555664 C-120.78509584 65.47842591 -120.24938552 63.00989047 -119.71484375 60.54101562 C-117.83834351 51.91386597 -115.87640574 43.32008288 -113.65625 34.7734375 C-133.855377 37.41234142 -153.69938968 40.459176 -173.50610352 45.30200195 C-175.65625 45.7734375 -175.65625 45.7734375 -177.65625 45.7734375 C-176.86151465 39.23790799 -175.4166397 32.87911948 -173.96875 26.4609375 C-173.70690918 25.29135498 -173.44506836 24.12177246 -173.17529297 22.91674805 C-170.39232065 10.52265901 -167.53452426 -1.85430214 -164.65625 -14.2265625 C-150.01861993 -17.72820567 -135.40384627 -20.75511852 -120.53125 -23.0390625 C-119.85215576 -23.14374847 -119.17306152 -23.24843445 -118.47338867 -23.35629272 C-114.20507339 -24.00997711 -109.93278593 -24.62922347 -105.65625 -25.2265625 C-104.86943848 -25.3414502 -104.08262695 -25.45633789 -103.27197266 -25.57470703 C-66.70935445 -30.36236306 -28.76007842 -24.10771279 0 0 Z " fill="#2E313A" transform="translate(492.65625,72.2265625)"/>
<path d="M0 0 C6.39215611 3.65859992 10.22056829 9.08921043 12.5625 16 C14.23404518 26.23821421 11.01735947 35.94905081 8.4296875 45.74609375 C6.34695401 53.68693918 4.52140836 61.68050142 2.73217773 69.69161987 C2.37093757 71.30548177 2.00687119 72.91871382 1.63989258 74.53128052 C1.12062267 76.81372229 0.60992902 79.09792069 0.1015625 81.3828125 C-0.05440399 82.06316055 -0.21037048 82.74350861 -0.37106323 83.44447327 C-1.22882221 87.36020027 -1.74780838 90.9934358 -1.4375 95 C7.8670762 107.52223802 25.44729731 115.79387674 39.81640625 120.78125 C41.17572266 121.38453125 41.17572266 121.38453125 42.5625 122 C43.73087637 125.5051291 43.34017083 126.96704478 42.55859375 130.5390625 C42.31520264 131.66578369 42.07181152 132.79250488 41.82104492 133.95336914 C41.5501001 135.16500732 41.27915527 136.37664551 41 137.625 C40.72841064 138.86435303 40.45682129 140.10370605 40.17700195 141.38061523 C33.11561278 173.34066166 33.11561278 173.34066166 30.5625 181 C24.94321943 180.49047974 20.78944521 178.98015291 15.8125 176.375 C15.11294189 176.0145459 14.41338379 175.6540918 13.69262695 175.28271484 C3.98758201 170.21233311 -4.29682237 164.56689898 -12.22265625 157.0390625 C-14.26289478 154.97197354 -14.26289478 154.97197354 -16.4375 154 C-16.53546875 154.65669678 -16.6334375 155.31339355 -16.734375 155.98999023 C-18.22143005 165.44512849 -20.31762168 174.73446142 -22.4375 184.0625 C-23.64342784 189.38088122 -24.83563855 194.70162232 -25.99707031 200.02990723 C-26.39899649 201.82776937 -26.83447558 203.61804648 -27.2734375 205.40722656 C-28.63155842 210.73771176 -28.63155842 210.73771176 -26.9375 215.7265625 C-26.1125 216.35304687 -25.2875 216.97953125 -24.4375 217.625 C-23.50421875 218.346875 -22.5709375 219.06875 -21.609375 219.8125 C-20.56265625 220.534375 -19.5159375 221.25625 -18.4375 222 C-17.89931641 222.37898437 -17.36113281 222.75796875 -16.80664062 223.1484375 C-6.36708566 230.44266348 4.84508763 236.05231892 16.5625 241 C15.93230527 250.50066298 13.80219637 259.55715999 11.6875 268.8125 C11.33149531 270.39115528 10.97602322 271.96993076 10.62109375 273.54882812 C8.63332032 282.37314941 6.60607045 291.18844433 4.5625 300 C-1.07718961 299.46989863 -5.47744688 297.95372508 -10.5625 295.5 C-11.30242187 295.14615234 -12.04234375 294.79230469 -12.8046875 294.42773438 C-22.87041812 289.47296525 -31.62968087 283.10841463 -39.828125 275.43359375 C-41.20273634 273.88914151 -41.20273634 273.88914151 -42.4375 274 C-42.78977661 275.57917961 -42.78977661 275.57917961 -43.14916992 277.19026184 C-54.4466629 327.83267559 -65.75496947 378.4726829 -77.10058594 429.1043396 C-78.15593568 433.81417287 -79.21059253 438.52416046 -80.26464844 443.23428345 C-81.51046759 448.80109081 -82.75775141 454.36756802 -84.00615692 459.93379593 C-84.46323347 461.97281325 -84.91981901 464.01194071 -85.37586212 466.05118942 C-86.55263414 471.31239907 -87.73604557 476.57193862 -88.93977356 481.82705307 C-89.39587534 483.81827732 -89.8479801 485.81041601 -90.29968262 487.80264282 C-90.55109009 488.86848602 -90.80249756 489.93432922 -91.06152344 491.0324707 C-91.2653363 491.90563431 -91.46914917 492.77879791 -91.67913818 493.67842102 C-93.99408846 500.76519645 -99.30575417 505.18212052 -105.4375 509 C-112.5640627 511.3755209 -121.09006531 511.10583796 -127.9375 508 C-133.71191483 504.64742034 -136.9252664 500.0932051 -139.8125 494.1875 C-141.56156442 485.26727147 -140.07229762 476.79909914 -138.03613281 468.06689453 C-137.77812802 466.91731199 -137.52012323 465.76772945 -137.25430012 464.58331108 C-136.54367857 461.42771228 -135.82264092 458.27471469 -135.09701467 455.12253952 C-134.31822097 451.72722413 -133.55334487 448.32877284 -132.78684998 444.93066406 C-131.4623701 439.06716119 -130.12959543 433.20559616 -128.79110718 427.34527588 C-126.66091107 418.01790491 -124.54766583 408.68673473 -122.43676758 399.35498047 C-121.71693446 396.17370888 -120.9969578 392.9924698 -120.27690125 389.81124878 C-120.09781953 389.02003997 -119.91873782 388.22883117 -119.73422939 387.41364634 C-118.45461942 381.76132856 -117.17262511 376.10955469 -115.88948059 370.45803833 C-111.24950433 350.02029452 -106.63579167 329.57689634 -102.05859375 309.125 C-101.91312363 308.47505176 -101.76765351 307.82510352 -101.6177752 307.15545988 C-100.02440395 300.03603572 -98.43214439 292.91636316 -96.84042358 285.79656982 C-94.26013298 274.25550844 -91.67520661 262.71548502 -89.09070778 251.17536545 C-88.23759163 247.3659258 -87.38460725 243.55645667 -86.53166199 239.74697876 C-82.83386447 223.23204696 -79.13349662 206.71769262 -75.43121338 190.20376587 C-74.58116286 186.41198831 -73.73124146 182.62018183 -72.88134766 178.82836914 C-70.4028426 167.7711114 -67.9235638 156.71403043 -65.43994141 145.65792084 C-64.12074748 139.7851188 -62.80232152 133.9121446 -61.484375 128.0390625 C-61.10060196 126.32893478 -61.10060196 126.32893478 -60.70907593 124.58425903 C-57.25185808 109.17156607 -53.83342298 93.7507769 -50.44874382 78.3219986 C-49.13020547 72.31710862 -47.8053234 66.31361419 -46.48056889 60.31009293 C-45.26660824 54.80398626 -44.06430541 49.29551193 -42.87145424 43.78479576 C-42.14830843 40.45684166 -41.41430567 37.13135186 -40.67728424 33.80644608 C-40.34472396 32.29533853 -40.0167217 30.78321862 -39.69390106 29.27000046 C-35.11328553 7.82352867 -35.11328553 7.82352867 -25.5 1.15625 C-17.5563046 -3.29703378 -8.36988961 -3.76645032 0 0 Z " fill="#7F5B53" transform="translate(145.4375,2)"/>
<path d="M0 0 C7.21097235 5.33884924 7.21097235 5.33884924 10.265625 7.8984375 C21.70674535 17.48321713 33.99907658 23.1996834 48 28 C47.34 28.33 46.68 28.66 46 29 C45.40822665 31.33618293 45.40822665 31.33618293 45.05859375 34.1875 C43.99673099 41.19061443 42.56227884 48.0791062 41.0625 55 C40.81048828 56.18078125 40.55847656 57.3615625 40.29882812 58.578125 C38.86477339 65.23859403 37.3230443 71.85624491 35.61572266 78.45214844 C34.84814681 81.62836634 34.36869597 84.75547548 34 88 C37.66266699 88.68996132 41.33065295 89.34658768 45 90 C45.92361328 90.17337891 46.84722656 90.34675781 47.79882812 90.52539062 C57.4641441 92.19985005 67.03256692 92.43795476 76.8125 92.625 C78.48764806 92.6632891 80.16277875 92.70234665 81.83789062 92.7421875 C85.89178173 92.83696356 89.94576408 92.92141344 94 93 C92.80958385 100.54637355 91.42329721 107.99807247 89.6875 115.4375 C89.47383789 116.36473877 89.26017578 117.29197754 89.04003906 118.24731445 C88.3652016 121.16610964 87.68375676 124.08328211 87 127 C86.76812988 127.99064453 86.53625977 128.98128906 86.29736328 130.00195312 C85.61795256 132.89786427 84.93512344 135.79293541 84.25 138.6875 C84.03947998 139.57816162 83.82895996 140.46882324 83.61206055 141.38647461 C83.41523682 142.21155518 83.21841309 143.03663574 83.015625 143.88671875 C82.84321289 144.61076904 82.67080078 145.33481934 82.49316406 146.08081055 C82.06668347 147.74049567 81.54188933 149.37433202 81 151 C75.17477061 152.94174313 68.61403521 152.2428765 62.5 152.25 C61.38218643 152.25250763 61.38218643 152.25250763 60.24179077 152.25506592 C46.51240634 152.25691776 33.06025676 151.6716315 20 147 C19.79246094 148.08410156 19.58492187 149.16820312 19.37109375 150.28515625 C17.76666947 158.53341655 16.07713737 166.75574844 14.2109375 174.94921875 C14.05514725 175.63343399 13.89935699 176.31764923 13.73884583 177.02259827 C12.95762427 180.4451393 12.16965089 183.86601048 11.37475586 187.28540039 C9.94154875 193.51833166 8.60633456 199.62944494 8 206 C10.99914719 206.65001678 13.99921801 207.29511037 17 207.9375 C17.83917969 208.11990234 18.67835938 208.30230469 19.54296875 208.49023438 C20.37441406 208.66748047 21.20585937 208.84472656 22.0625 209.02734375 C22.81660156 209.18968506 23.57070312 209.35202637 24.34765625 209.51928711 C30.54763679 210.64297651 36.47998884 211.12306456 42.78125 211.09765625 C43.48020386 211.0962413 44.17915771 211.09482635 44.89929199 211.09336853 C47.09957429 211.0878367 49.29974923 211.07529777 51.5 211.0625 C53.00520685 211.05747616 54.51041532 211.05291482 56.015625 211.04882812 C59.67711735 211.03788977 63.33854817 211.02067359 67 211 C66.46996513 217.85213753 65.40396966 224.38130679 63.8125 231.0625 C63.5969043 231.98772461 63.38130859 232.91294922 63.15917969 233.86621094 C62.44651672 236.91251565 61.72358213 239.95627169 61 243 C60.4570087 245.30598427 59.91404046 247.61197398 59.37109375 249.91796875 C58.83148133 252.19549084 58.2911321 254.4728385 57.75 256.75 C57.4919458 257.83933838 57.2338916 258.92867676 56.96801758 260.05102539 C56.72591553 261.06028076 56.48381348 262.06953613 56.234375 263.109375 C56.02006836 264.00624023 55.80576172 264.90310547 55.58496094 265.82714844 C55 268 55 268 54 270 C48.29623717 271.90125428 41.92179406 271.24281537 35.9375 271.25 C35.21369141 271.25167175 34.48988281 271.25334351 33.74414062 271.25506592 C19.61538844 271.25702824 6.69831141 269.48518985 -7 266 C-5.45613744 258.76769801 -3.90140083 251.5379021 -2.33035278 244.3114624 C-1.52727206 240.61458392 -0.72770333 236.91694953 0.0715332 233.21923828 C0.4861221 231.30486624 0.90216484 229.39080854 1.31958008 227.47705078 C1.92913448 224.68082961 2.53343925 221.88351824 3.13671875 219.0859375 C3.3241716 218.23180267 3.51162445 217.37766785 3.70475769 216.49765015 C3.87526138 215.70226837 4.04576508 214.9068866 4.22143555 214.08740234 C4.37227097 213.39238617 4.52310638 212.69737 4.67851257 211.98129272 C5.10677777 209.6764743 5.10677777 209.6764743 5 206 C3.63681641 205.50693359 3.63681641 205.50693359 2.24609375 205.00390625 C-13.45931883 199.14049593 -27.03096726 190.82696707 -39 179 C-40.03050138 175.90849585 -40.00803031 175.0827977 -39.35083008 172.04199219 C-39.18347855 171.24976257 -39.01612701 170.45753296 -38.84370422 169.64129639 C-38.65422714 168.78513733 -38.46475006 167.92897827 -38.26953125 167.046875 C-38.07783859 166.15446106 -37.88614594 165.26204712 -37.68864441 164.34259033 C-37.27945384 162.44536364 -36.86644595 160.54895692 -36.44995117 158.65332031 C-35.82447483 155.80454029 -35.21096565 152.95340198 -34.59960938 150.1015625 C-32.34214487 139.65149302 -29.88738078 129.2950955 -27 119 C-23.83033922 120.51169069 -21.66058455 122.12064329 -19.125 124.5625 C-8.29714476 134.31286883 5.69995731 142.65642269 20 146 C20.11102051 145.42822021 20.22204102 144.85644043 20.33642578 144.26733398 C21.73281109 137.17197756 23.29035005 130.11786931 24.875 123.0625 C26.74339478 114.69486703 28.59884695 106.3252552 30.375 97.9375 C30.54241699 97.15318604 30.70983398 96.36887207 30.88232422 95.56079102 C31.70777916 91.81277138 31.70777916 91.81277138 32 88 C30.9584375 87.61070313 29.916875 87.22140625 28.84375 86.8203125 C15.26309828 81.58678526 3.08756171 74.85332979 -8.0625 65.4375 C-9.04347656 64.61121094 -10.02445313 63.78492188 -11.03515625 62.93359375 C-13.28671607 59.57192094 -13.32457679 57.83896662 -12.63305664 53.91137695 C-12.3196936 52.47024536 -12.3196936 52.47024536 -12 51 C-11.61026001 49.09190552 -11.61026001 49.09190552 -11.21264648 47.14526367 C-10.42154009 43.34282278 -9.58154394 39.55264238 -8.72631836 35.76416016 C-8.19373722 33.4026563 -7.66951915 31.03941556 -7.14648438 28.67578125 C-5.00045839 19.04754226 -2.62612443 9.50901951 0 0 Z " fill="#E4E5E6" transform="translate(156,37)"/>
<path d="M0 0 C1.06863281 0.01804688 2.13726562 0.03609375 3.23828125 0.0546875 C4.04652344 0.07789062 4.85476562 0.10109375 5.6875 0.125 C5.07348567 4.70944703 4.29842123 9.2018981 3.3046875 13.71875 C3.02826416 14.97993652 2.75184082 16.24112305 2.46704102 17.54052734 C2.16568392 18.90205289 1.8641658 20.26354281 1.5625 21.625 C1.24721462 23.0554793 0.93203091 24.48598102 0.61694336 25.91650391 C-0.35456557 30.3204447 -1.33262892 34.72291318 -2.3125 39.125 C-2.53513519 40.12605774 -2.53513519 40.12605774 -2.76226807 41.14733887 C-6.35306188 57.28502556 -10.07017306 73.38817559 -13.8878479 89.47329712 C-16.46198959 100.33301033 -18.86597248 111.21944498 -21.16430664 122.14135742 C-22.97608988 130.69915518 -24.98499221 139.19707373 -27.06298828 147.69360352 C-28.95222176 155.47638392 -30.66087018 163.28862364 -32.3125 171.125 C-34.14258597 179.80576699 -36.0732815 188.44654475 -38.1875 197.0625 C-40.73638848 207.46081603 -43.01639504 217.90567493 -45.25 228.375 C-47.91826181 240.87989818 -50.75600043 253.31936263 -53.81054688 265.73657227 C-56.0455839 274.8746408 -58.03991513 284.05009385 -59.97314453 293.25610352 C-61.94604288 302.58093807 -64.10448996 311.8538249 -66.3125 321.125 C-69.08494504 332.76695077 -71.69978578 344.42868616 -74.1640625 356.140625 C-75.97611343 364.6986264 -77.98493108 373.19682377 -80.06298828 381.69360352 C-81.95222138 389.47638236 -83.66092336 397.28861292 -85.3125 405.125 C-87.39894874 415.02476457 -89.6589166 424.86425537 -92.0625 434.69140625 C-93.95180378 442.47494421 -95.66068449 450.28789162 -97.3125 458.125 C-99.88155508 470.30881753 -102.72629625 482.41083177 -105.67822266 494.50683594 C-106.93679637 499.70196471 -108.13098952 504.9118441 -109.3125 510.125 C-111.86753839 511.09255422 -112.94063894 511.2839889 -115.49609375 510.19140625 C-122.07776376 505.799824 -126.65623644 501.04212829 -128.3125 493.125 C-128.92114794 485.17807726 -127.70962805 477.90484014 -125.91113281 470.19189453 C-125.65312802 469.04231199 -125.39512323 467.89272945 -125.12930012 466.70831108 C-124.41867857 463.55271228 -123.69764092 460.39971469 -122.97201467 457.24753952 C-122.19322097 453.85222413 -121.42834487 450.45377284 -120.66184998 447.05566406 C-119.3373701 441.19216119 -118.00459543 435.33059616 -116.66610718 429.47027588 C-114.53591107 420.14290491 -112.42266583 410.81173473 -110.31176758 401.47998047 C-109.59193446 398.29870888 -108.8719578 395.1174698 -108.15190125 391.93624878 C-107.97281953 391.14503997 -107.79373782 390.35383117 -107.60922939 389.53864634 C-106.32961942 383.88632856 -105.04762511 378.23455469 -103.76448059 372.58303833 C-99.12450433 352.14529452 -94.51079167 331.70189634 -89.93359375 311.25 C-89.78812363 310.60005176 -89.64265351 309.95010352 -89.4927752 309.28045988 C-87.89940395 302.16103572 -86.30714439 295.04136316 -84.71542358 287.92156982 C-82.13513298 276.38050844 -79.55020661 264.84048502 -76.96570778 253.30036545 C-76.11259163 249.4909258 -75.25960725 245.68145667 -74.40666199 241.87197876 C-70.70886447 225.35704696 -67.00849662 208.84269262 -63.30621338 192.32876587 C-62.45616286 188.53698831 -61.60624146 184.74518183 -60.75634766 180.95336914 C-58.2778426 169.8961114 -55.7985638 158.83903043 -53.31494141 147.78292084 C-51.99574748 141.9101188 -50.67732152 136.0371446 -49.359375 130.1640625 C-48.97560196 128.45393478 -48.97560196 128.45393478 -48.58407593 126.70925903 C-45.12685808 111.29656607 -41.70842298 95.8757769 -38.32374382 80.4469986 C-37.00520547 74.44210862 -35.6803234 68.43861419 -34.35556889 62.43509293 C-33.14160824 56.92898626 -31.93930541 51.42051193 -30.74645424 45.90979576 C-30.02330843 42.58184166 -29.28930567 39.25635186 -28.55228424 35.93144608 C-28.21972396 34.42033853 -27.8917217 32.90821862 -27.56890106 31.39500046 C-22.98828553 9.94852867 -22.98828553 9.94852867 -13.375 3.28125 C-8.77353067 0.70163841 -5.29692662 -0.11641597 0 0 Z " fill="#AE7F65" transform="translate(133.3125,-0.12499999999999999)"/>
<path d="M0 0 C10.34442296 5.44066536 19.165842 12.54143772 27.5625 20.625 C28.64144531 21.63046875 28.64144531 21.63046875 29.7421875 22.65625 C30.38414062 23.3059375 31.02609375 23.955625 31.6875 24.625 C32.24695313 25.181875 32.80640625 25.73875 33.3828125 26.3125 C36.715534 32.84551698 33.94953665 41.63103587 32.39111328 48.40551758 C32.16024017 49.4440387 31.92936707 50.48255981 31.6914978 51.55255127 C30.93131434 54.96039021 30.15739121 58.36493793 29.3828125 61.76953125 C28.84882911 64.14589739 28.31554492 66.52242074 27.78292847 68.89909363 C26.66741341 73.86728526 25.54543146 78.83395607 24.41845703 83.79956055 C22.97351709 90.16728954 21.54174966 96.53788959 20.11439705 102.90958118 C19.01532951 107.81148971 17.91087752 112.71217196 16.80462265 117.612463 C16.27464113 119.96174392 15.74598135 122.31132342 15.21866226 124.66120338 C14.48190885 127.93916742 13.73829773 131.21549859 12.99267578 134.49145508 C12.66683502 135.94946785 12.66683502 135.94946785 12.33441162 137.43693542 C12.1297226 138.32974213 11.92503357 139.22254883 11.71414185 140.14241028 C11.45143085 141.30292766 11.45143085 141.30292766 11.18341255 142.48688984 C10.54033714 144.70131773 9.65556516 146.59929978 8.5625 148.625 C7.91925781 147.87476563 7.27601563 147.12453125 6.61328125 146.3515625 C-6.59900534 131.25605984 -22.25397786 121.29575763 -40.76953125 113.75390625 C-43.4375 112.625 -43.4375 112.625 -44.4375 111.625 C-43.9318764 105.23740699 -42.80983069 99.09163897 -41.44140625 92.83984375 C-41.24780014 91.93931778 -41.05419403 91.03879181 -40.85472107 90.11097717 C-40.44746705 88.22058879 -40.0381007 86.33065435 -39.62670898 84.44116211 C-39.00116565 81.5678542 -38.38184329 78.69326139 -37.76367188 75.81835938 C-37.36494413 73.97127625 -36.96586733 72.12426842 -36.56640625 70.27734375 C-36.38300186 69.42816879 -36.19959747 68.57899384 -36.01063538 67.7040863 C-34.90958779 62.65233709 -33.71615068 57.6348189 -32.4375 52.625 C-34.92748187 52.15881397 -37.41870754 51.70637551 -39.9140625 51.26953125 C-42.31294315 50.83071162 -44.70395139 50.34703155 -47.0859375 49.82421875 C-62.05876237 46.71741261 -77.22661767 47.34213503 -92.4375 47.625 C-91.80979411 42.05322861 -90.89762597 36.64610357 -89.6953125 31.171875 C-89.52627411 30.390401 -89.35723572 29.608927 -89.18307495 28.80377197 C-88.82667517 27.15967281 -88.46858818 25.51593856 -88.10888672 23.87255859 C-87.5671776 21.39638154 -87.03119503 18.91901869 -86.49609375 16.44140625 C-81.24933909 -7.75132181 -81.24933909 -7.75132181 -79.4375 -11.375 C-55.6406731 -19.30727563 -21.73286837 -10.36927707 0 0 Z " fill="#E4E5E6" transform="translate(472.4375,58.375)"/>
<path d="M0 0 C1.05058594 0.20496094 2.10117188 0.40992188 3.18359375 0.62109375 C4.60152737 0.89341213 6.01949815 1.16553711 7.4375 1.4375 C8.46907227 1.63956055 8.46907227 1.63956055 9.52148438 1.84570312 C20.66942118 3.97158875 31.75207569 4.28408606 43.0625 4.5625 C44.70769144 4.60577319 46.35287389 4.64939002 47.99804688 4.69335938 C51.99860506 4.79953838 55.99925663 4.90105517 60 5 C59.51092374 13.95161303 57.72328396 22.48662976 55.6875 31.1875 C55.38804962 32.49530038 55.08921927 33.8032429 54.79101562 35.11132812 C52.65264293 44.43897494 50.34859291 53.72332726 48 63 C65.52448232 60.48796368 82.92947868 57.83529353 100.2265625 54.015625 C104.1401561 53.15485037 108.02490578 52.50097078 112 52 C111.38165112 59.10365077 109.98085151 65.77760356 108.25 72.6875 C107.70847089 74.89294355 107.16813119 77.09867945 106.62890625 79.3046875 C106.3570752 80.41424805 106.08524414 81.52380859 105.80517578 82.66699219 C104.32491055 88.79451825 102.94531348 94.94460429 101.56152344 101.09448242 C101.36977539 101.94631104 101.17802734 102.79813965 100.98046875 103.67578125 C100.81442139 104.41739502 100.64837402 105.15900879 100.47729492 105.9230957 C100.01018505 107.95568071 99.51272517 109.97848757 99 112 C84.30163483 115.51617234 69.6176299 118.55345771 54.6875 120.875 C53.9955957 120.98395599 53.30369141 121.09291199 52.59082031 121.20516968 C40.26255757 123.13366116 40.26255757 123.13366116 34 123 C34.32871094 121.53820312 34.32871094 121.53820312 34.6640625 120.046875 C37.11339683 109.10862535 39.47785828 98.15333995 41.80517578 87.18847656 C43.45590163 79.43945049 45.1943677 71.71439461 47 64 C45.69059448 64.24121582 45.69059448 64.24121582 44.35473633 64.48730469 C29.07398803 66.82262027 12.99708657 65.3842983 -2 62 C-3.99933767 61.62148462 -5.99924066 61.24592729 -8 60.875 C-11.87029289 60.12970711 -11.87029289 60.12970711 -13 59 C-12.48113136 53.41965646 -11.45881464 48.01513297 -10.2578125 42.546875 C-10.08877411 41.765401 -9.91973572 40.983927 -9.74557495 40.17877197 C-9.38917517 38.53467281 -9.03108818 36.89093856 -8.67138672 35.24755859 C-8.1296776 32.77138154 -7.59369503 30.29401869 -7.05859375 27.81640625 C-1.81183909 3.62367819 -1.81183909 3.62367819 0 0 Z " fill="#2E313A" transform="translate(176,184)"/>
<path d="M0 0 C-1.95527205 12.31478358 -4.63597515 24.4097816 -7.5 36.54296875 C-9.09936937 43.34134637 -10.55906006 50.16639343 -12 57 C-10.96818604 57.01458252 -9.93637207 57.02916504 -8.87329102 57.04418945 C-4.95712655 57.10321295 -1.04147659 57.18041272 2.87426758 57.26245117 C4.55256655 57.29522108 6.23096312 57.32339298 7.90942383 57.34643555 C35.15392722 57.73016095 35.15392722 57.73016095 47 63 C46.60644063 72.49083567 44.78810244 81.46095381 42.67138672 90.68188477 C42.12552281 93.06022211 41.59105283 95.44089506 41.05859375 97.82226562 C39.23191601 105.93777093 37.30232201 114.00344413 35 122 C30.3470801 121.61861312 25.81711136 121.15918854 21.23046875 120.265625 C5.5746428 117.22435666 -10.12674755 117.71331998 -26 118 C-25.37544413 112.44917198 -24.46544359 107.06839589 -23.2578125 101.6171875 C-23.00425491 100.45209152 -23.00425491 100.45209152 -22.74557495 99.26345825 C-22.20869312 96.79990198 -21.66698808 94.33743736 -21.125 91.875 C-20.76920039 90.24746813 -20.4137292 88.61986442 -20.05859375 86.9921875 C-19.36758338 83.82619513 -18.67499472 80.66055421 -17.98144531 77.49511719 C-16.63371409 71.33448583 -15.31441267 65.16782182 -14 59 C-20.72283099 60.07930777 -27.44471805 61.16435805 -34.16601562 62.25317383 C-36.44673277 62.62197133 -38.72765335 62.98951325 -41.00878906 63.35571289 C-59.08535657 66.25096847 -59.08535657 66.25096847 -77 70 C-76.5183243 62.14386936 -75.19127194 54.8054024 -73.25 47.1875 C-72.70539993 45.00301021 -72.16246659 42.81810431 -71.62109375 40.6328125 C-71.21286377 38.98780762 -71.21286377 38.98780762 -70.79638672 37.30957031 C-70.01599825 34.06648446 -69.29477923 30.81660249 -68.59765625 27.5546875 C-68.2713623 26.04032104 -68.2713623 26.04032104 -67.93847656 24.49536133 C-67.5286694 22.57530927 -67.12791726 20.65329681 -66.73730469 18.72924805 C-66.55200195 17.87113525 -66.36669922 17.01302246 -66.17578125 16.12890625 C-66.02020752 15.37681885 -65.86463379 14.62473145 -65.7043457 13.84985352 C-65 12 -65 12 -62 10 C-60.16140532 9.47005525 -58.30171783 9.01164205 -56.43359375 8.59765625 C-55.31662109 8.34846436 -54.19964844 8.09927246 -53.04882812 7.8425293 C-51.85708984 7.58511963 -50.66535156 7.32770996 -49.4375 7.0625 C-48.22126953 6.79671143 -47.00503906 6.53092285 -45.75195312 6.25708008 C-30.67519629 3.00712608 -15.48543155 -0.11188896 0 0 Z " fill="#2E3139" transform="translate(366,166)"/>
<path d="M0 0 C-3.68299518 19.80575731 -8.41554125 39.38837811 -13 59 C-12.11820068 58.83991455 -11.23640137 58.6798291 -10.32788086 58.51489258 C8.06774712 55.66870525 29.50000873 57.55721715 47 64 C46.34399283 69.97704962 45.27620222 75.75103958 43.96875 81.6171875 C43.56630303 83.45961287 43.16396258 85.30206152 42.76171875 87.14453125 C42.13167648 90.01036553 41.49982642 92.87578424 40.86572266 95.74072266 C40.24936607 98.53183469 39.6399882 101.32440551 39.03125 104.1171875 C38.84268433 104.95917694 38.65411865 105.80116638 38.45983887 106.66867065 C37.20934333 112.42540703 36.47012021 118.12885298 36 124 C34.27716797 123.60167969 34.27716797 123.60167969 32.51953125 123.1953125 C30.95057479 122.83830444 29.38156122 122.48154735 27.8125 122.125 C27.06291016 121.95097656 26.31332031 121.77695313 25.54101562 121.59765625 C13.19167894 118.80742955 1.31174224 117.71847062 -11.3125 117.875 C-12.74673844 117.88506483 -14.18098383 117.8941844 -15.61523438 117.90234375 C-19.07697115 117.92404551 -22.53843852 117.95837545 -26 118 C-25.41236244 112.04182467 -24.55013953 106.29170683 -23.2578125 100.44921875 C-23.00425491 99.27913017 -23.00425491 99.27913017 -22.74557495 98.08540344 C-22.38965161 96.44717574 -22.03156313 94.80941704 -21.67138672 93.17211914 C-21.12884584 90.70498841 -20.59313552 88.23645297 -20.05859375 85.76757812 C-18.18209351 77.14042847 -16.22015574 68.54664538 -14 60 C-34.199127 62.63890392 -54.04313968 65.6857385 -73.84985352 70.52856445 C-76 71 -76 71 -78 71 C-77.20526465 64.46447049 -75.7603897 58.10568198 -74.3125 51.6875 C-74.05065918 50.51791748 -73.78881836 49.34833496 -73.51904297 48.14331055 C-70.73607065 35.74922151 -67.87827426 23.37226036 -65 11 C-50.30163483 7.48382766 -35.6176299 4.44654229 -20.6875 2.125 C-19.64964355 1.96156601 -19.64964355 1.96156601 -18.59082031 1.79483032 C-6.26255757 -0.13366116 -6.26255757 -0.13366116 0 0 Z " fill="#2E3139" transform="translate(393,47)"/>
<path d="M0 0 C4.86810088 0.4282244 9.70126273 0.90211806 14.515625 1.75390625 C30.02072146 4.44652579 45.32279282 4.30832631 61 4 C60.37544413 9.55082802 59.46544359 14.93160411 58.2578125 20.3828125 C58.08877411 21.15954315 57.91973572 21.9362738 57.74557495 22.73654175 C57.20869312 25.20009802 56.66698808 27.66256264 56.125 30.125 C55.76920039 31.75253187 55.4137292 33.38013558 55.05859375 35.0078125 C54.36758338 38.17380487 53.67499472 41.33944579 52.98144531 44.50488281 C51.63371409 50.66551417 50.31441267 56.83217818 49 63 C53.83506843 62.28203482 58.66818783 61.55201161 63.5 60.8125 C64.22130096 60.70217438 64.94260193 60.59184875 65.6857605 60.47817993 C76.36180964 58.8341707 86.93576787 56.924629 97.47265625 54.5246582 C102.44836511 53.41432806 106.89986142 52.75513738 112 53 C111.48572359 60.47552184 110.08623877 67.49542675 108.25 74.75 C106.60720764 81.28296497 104.998815 87.78802292 103.7734375 94.4140625 C103.5784668 95.41856445 103.38349609 96.42306641 103.18261719 97.45800781 C102.81884079 99.36098519 102.48220534 101.26941098 102.17675781 103.18261719 C101.68186573 105.68347184 101.1770422 107.73844944 100 110 C96.99563641 111.69442023 95.26476177 112.33894221 92 113 C91.13342773 113.20802246 90.26685547 113.41604492 89.37402344 113.63037109 C86.44597704 114.30916863 83.51024916 114.91289253 80.5625 115.5 C79.50353516 115.71430664 78.44457031 115.92861328 77.35351562 116.14941406 C74.23735055 116.77510075 71.11908135 117.38904062 68 118 C67.17097168 118.16564453 66.34194336 118.33128906 65.48779297 118.50195312 C55.33027461 120.51818233 45.34757204 121.59612438 35 122 C36.62288996 110.51865911 39.35581895 99.27934756 42 88 C42.23187012 87.00935547 42.46374023 86.01871094 42.70263672 84.99804688 C43.38204744 82.10213573 44.06487656 79.20706459 44.75 76.3125 C44.96052002 75.42183838 45.17104004 74.53117676 45.38793945 73.61352539 C45.58476318 72.78844482 45.78158691 71.96336426 45.984375 71.11328125 C46.15678711 70.38923096 46.32919922 69.66518066 46.50683594 68.91918945 C46.93331653 67.25950433 47.45811067 65.62566798 48 64 C46.97753174 64.01047363 45.95506348 64.02094727 44.90161133 64.03173828 C41.04552829 64.0684103 37.18946007 64.09106901 33.33325195 64.10986328 C31.67599887 64.11981483 30.01876285 64.13338093 28.36157227 64.15087891 C14.50706378 64.29332018 1.25566711 63.4185557 -12 59 C-12.16985921 53.87989929 -11.5999667 49.48342188 -10.390625 44.51171875 C-10.22363098 43.81463303 -10.05663696 43.1175473 -9.88458252 42.39933777 C-9.34678071 40.16028707 -8.79840309 37.92397507 -8.25 35.6875 C-7.69566748 33.38943654 -7.1440783 31.09072507 -6.5925293 28.79199219 C-6.23034713 27.28362903 -5.86723674 25.77548844 -5.50317383 24.26757812 C-4.10770281 18.48330242 -2.77429058 12.68726276 -1.5 6.875 C-1.26071777 5.78578247 -1.26071777 5.78578247 -1.01660156 4.67456055 C-0.67572712 3.11681158 -0.33745169 1.55849401 0 0 Z " fill="#2D3039" transform="translate(202,66)"/>
<path d="M0 0 C6.71710728 0.44780715 12.02502326 3.02060781 18 6 C18.88945312 6.433125 19.77890625 6.86625 20.6953125 7.3125 C31.72004044 12.96950326 48.2373496 23.47469919 54 35 C54.38299625 42.17647078 53.27308345 48.51639815 51.6640625 55.4921875 C51.42464935 56.55994415 51.18523621 57.62770081 50.93856812 58.72781372 C50.4337143 60.9693269 49.92416642 63.20978751 49.41015625 65.44921875 C48.62321735 68.88277802 47.85351708 72.31987944 47.0859375 75.7578125 C46.5921575 77.9403333 46.09740021 80.12263327 45.6015625 82.3046875 C45.3712735 83.33278534 45.1409845 84.36088318 44.90371704 85.4201355 C44.57360123 86.84774704 44.57360123 86.84774704 44.23681641 88.30419922 C44.04584381 89.14087128 43.85487122 89.97754333 43.65811157 90.83956909 C43 93 43 93 41 96 C40.18208984 95.05640625 40.18208984 95.05640625 39.34765625 94.09375 C24.81558351 77.59922641 8.05393911 67.60901426 -12 59 C-11.33929894 53.01930137 -10.28704777 47.22383463 -9.00390625 41.34765625 C-8.71349709 39.99830238 -8.71349709 39.99830238 -8.41722107 38.62168884 C-7.80220198 35.7679192 -7.18240286 32.9152123 -6.5625 30.0625 C-6.15008083 28.15175955 -5.73796872 26.24095279 -5.32617188 24.33007812 C-3.57491361 16.21457365 -1.80668272 8.1033612 0 0 Z " fill="#2E313A" transform="translate(453,52)"/>
<path d="M0 0 C17.94911319 2.56415903 34.13736337 14.93877399 46.8125 27.25 C47.41787598 27.82830566 48.02325195 28.40661133 48.64697266 29.00244141 C49.20304199 29.56366699 49.75911133 30.12489258 50.33203125 30.703125 C50.82421143 31.19458008 51.3163916 31.68603516 51.82348633 32.19238281 C54.34113011 36.0605369 54.14775965 39.89537337 53.35083008 44.27368164 C53.0026795 45.90517591 52.64153686 47.53393542 52.26953125 49.16015625 C52.07783859 50.02764999 51.88614594 50.89514374 51.68864441 51.78892517 C51.28133263 53.61647813 50.86831693 55.44276808 50.44995117 57.26782227 C49.81466117 60.05302513 49.20611427 62.84317133 48.59960938 65.63476562 C48.19952047 67.41442381 47.79787935 69.1937339 47.39453125 70.97265625 C47.12549736 72.21813988 47.12549736 72.21813988 46.85102844 73.48878479 C45.74146877 78.22173646 44.51456203 81.44460633 41 85 C37.88603384 86.55698308 35.3297854 86.84937225 32 86 C28.41580276 83.6345499 25.25773645 80.79023651 22 78 C16.48658167 73.73124969 10.68056938 70.13371553 4.5625 66.8125 C3.97831299 66.49152344 3.39412598 66.17054688 2.79223633 65.83984375 C-2.5956257 62.99181621 -8.24925041 60.99082069 -14 59 C-13.74307373 57.89712646 -13.48614746 56.79425293 -13.22143555 55.65795898 C-12.25181321 51.49297272 -11.28527522 47.32727537 -10.31958008 43.16137695 C-9.90438119 41.37212473 -9.48839019 39.5830561 -9.0715332 37.79418945 C-6.7684092 27.90821676 -4.53547301 18.03319533 -2.68676758 8.05102539 C-2.04402479 5.19558401 -1.17276457 2.67565222 0 0 Z " fill="#E5E6E7" transform="translate(414,230)"/>
<path d="M0 0 C4.34743792 3.20593188 8.59326268 6.48700446 12.75 9.9375 C21.13061329 16.6343371 30.02370354 21.43727299 40.18823242 24.78369141 C42.04296875 25.4453125 42.04296875 25.4453125 45 27 C46.86904088 31.75035936 45.31591579 36.43409409 44.234375 41.21875 C44.04031067 42.11307739 43.84624634 43.00740479 43.64630127 43.92883301 C43.0234726 46.78801032 42.38687999 49.6439235 41.75 52.5 C41.33634699 54.39042991 40.92357764 56.2810534 40.51171875 58.171875 C38.40834076 67.7966904 36.24774811 77.40781346 34 87 C28.36031039 86.46989863 23.96005312 84.95372508 18.875 82.5 C18.13507813 82.14615234 17.39515625 81.79230469 16.6328125 81.42773438 C6.45968564 76.42010038 -4.6755535 69.74666912 -12 61 C-13.11558712 57.15938117 -12.90095868 54.38042292 -12.02783203 50.50708008 C-11.67218674 48.89564873 -11.67218674 48.89564873 -11.30935669 47.25166321 C-11.04484711 46.10255966 -10.78033752 44.95345612 -10.5078125 43.76953125 C-10.10971878 41.98937874 -10.10971878 41.98937874 -9.70358276 40.17326355 C-9.1415373 37.66824759 -8.57469788 35.16430311 -8.00341797 32.66137695 C-7.12642569 28.81874681 -6.26308508 24.97325271 -5.40234375 21.12695312 C-4.85495567 18.69513477 -4.30680474 16.26348797 -3.7578125 13.83203125 C-3.49735138 12.67685501 -3.23689026 11.52167877 -2.96853638 10.33149719 C-2.72513519 9.26666611 -2.48173401 8.20183502 -2.23095703 7.10473633 C-1.90999557 5.6950634 -1.90999557 5.6950634 -1.58255005 4.25691223 C-1 2 -1 2 0 0 Z " fill="#2E313A" transform="translate(116,215)"/>
<path d="M0 0 C3.11092936 1.48401366 5.17127398 3.00901807 7.625 5.4375 C17.8859538 14.70273625 30.26112719 21.271587 43.25390625 25.78125 C44.61322266 26.38453125 44.61322266 26.38453125 46 27 C47.16837637 30.5051291 46.77767083 31.96704478 45.99609375 35.5390625 C45.63100708 37.22914429 45.63100708 37.22914429 45.25854492 38.95336914 C44.9876001 40.16500732 44.71665527 41.37664551 44.4375 42.625 C44.16591064 43.86435303 43.89432129 45.10370605 43.61450195 46.38061523 C36.55311278 78.34066166 36.55311278 78.34066166 34 86 C28.38083384 85.49049012 24.2267662 83.98034801 19.25 81.375 C18.1995752 80.8332312 18.1995752 80.8332312 17.12792969 80.28051758 C8.58496508 75.81398595 0.66491536 70.86406815 -6.75 64.6875 C-7.28850586 64.27395264 -7.82701172 63.86040527 -8.38183594 63.43432617 C-9.859375 62.13671875 -9.859375 62.13671875 -12 59 C-12.27227958 51.75995182 -10.11239123 44.30807868 -8.49609375 37.3046875 C-8.2533522 36.23123077 -8.01061066 35.15777405 -7.76051331 34.05178833 C-6.99178173 30.65822337 -6.21478523 27.26661483 -5.4375 23.875 C-4.91155975 21.56002063 -4.38616376 19.24491755 -3.86132812 16.9296875 C-2.58050672 11.28501288 -1.2929132 5.64191655 0 0 Z " fill="#2D3039" transform="translate(142,97)"/>
</svg>
